<svg width="12" height="12" viewBox="0 0 12 12" fill="none" xmlns="http://www.w3.org/2000/svg">
<path d="M5.6875 0C2.54668 0 0 2.54668 0 5.6875C0 8.82832 2.54668 11.375 5.6875 11.375C8.82832 11.375 11.375 8.82832 11.375 5.6875C11.375 2.54668 8.82832 0 5.6875 0ZM6.09375 8.42969C6.09375 8.48555 6.04805 8.53125 5.99219 8.53125H5.38281C5.32695 8.53125 5.28125 8.48555 5.28125 8.42969V4.97656C5.28125 4.9207 5.32695 4.875 5.38281 4.875H5.99219C6.04805 4.875 6.09375 4.9207 6.09375 4.97656V8.42969ZM5.6875 4.0625C5.52804 4.05924 5.3762 3.99361 5.26458 3.87969C5.15296 3.76576 5.09044 3.61262 5.09044 3.45312C5.09044 3.29363 5.15296 3.14049 5.26458 3.02656C5.3762 2.91264 5.52804 2.84701 5.6875 2.84375C5.84696 2.84701 5.9988 2.91264 6.11042 3.02656C6.22204 3.14049 6.28456 3.29363 6.28456 3.45312C6.28456 3.61262 6.22204 3.76576 6.11042 3.87969C5.9988 3.99361 5.84696 4.05924 5.6875 4.0625Z" fill="#4F4F4F"/>
</svg>
